<svg width="61" height="61" viewBox="0 0 61 61" fill="none" xmlns="http://www.w3.org/2000/svg">
<g clip-path="url(#clip0)">
<path d="M52.2189 8.93322C46.4479 3.17258 38.7749 0 30.6136 0C22.4519 0 14.7789 3.17258 9.0079 8.93322C3.23692 14.6939 0.0585938 22.3533 0.0585938 30.5C0.0585938 38.6467 3.23692 46.3061 9.0079 52.0668C14.7789 57.8274 22.4519 61 30.6136 61C31.1079 61 31.5089 60.6002 31.5089 60.1064C31.5089 59.6127 31.1079 59.2129 30.6136 59.2129C22.9303 59.2129 15.7068 56.2265 10.2739 50.8032C4.84101 45.38 1.8492 38.1697 1.8492 30.5C1.8492 22.8303 4.84101 15.62 10.2739 10.1968C15.7068 4.77354 22.9303 1.78711 30.6136 1.78711C38.2964 1.78711 45.5199 4.77354 50.9529 10.1968C56.3858 15.62 59.3776 22.8308 59.3776 30.5C59.3776 37.4772 56.8404 44.203 52.2333 49.4392C47.6682 54.6274 41.4006 58.0024 34.5847 58.9416C34.0946 59.009 33.7528 59.46 33.8204 59.9491C33.888 60.4378 34.3394 60.7789 34.8295 60.7119C42.0716 59.7137 48.73 56.1292 53.5791 50.6185C58.4729 45.0561 61.1682 37.9109 61.1682 30.5C61.1682 22.3533 57.9898 14.6939 52.2189 8.93322Z" fill="#CC0000"/>
<path d="M23.4713 18.5487H33.3728C33.8676 18.5487 34.2681 18.1485 34.2681 17.6552C34.2681 17.1618 33.8676 16.7616 33.3728 16.7616H23.4713C21.151 16.7616 19.1305 18.4086 18.6665 20.6779L17.4471 26.6456C15.3217 27.071 13.7148 28.947 13.7148 31.192V41.9449C13.7148 42.7966 14.4092 43.4901 15.263 43.4901H18.4791C19.5693 43.4901 20.4562 42.6049 20.4562 41.5168V39.0186C20.4562 38.9837 20.4846 38.9553 20.5196 38.9553H40.6341C40.6691 38.9553 40.6975 38.9837 40.6975 39.0186V41.5168C40.6975 42.6049 41.5844 43.4901 42.6747 43.4901H45.9668C46.8201 43.4901 47.5144 42.7971 47.5144 41.9449V31.192C47.5144 31.1879 47.5144 31.1832 47.5144 31.179C47.5065 30.6247 47.3638 29.2053 46.2209 28.0074C45.1838 26.9207 43.9388 26.64 43.2193 26.5735L42.0144 20.6779C41.5509 18.4086 39.5299 16.7616 37.2096 16.7616C36.7153 16.7616 36.3143 17.1618 36.3143 17.6552C36.3143 18.1485 36.7153 18.5487 37.2096 18.5487C38.6826 18.5487 39.9654 19.5944 40.2601 21.0353L41.3587 26.412C37.7915 26.1076 34.1851 25.9536 30.6132 25.9536C30.4533 25.9536 30.2933 25.9536 30.1334 25.9536C26.5382 25.9596 22.9048 26.1248 19.3156 26.445L20.4212 21.0353C20.7155 19.5944 21.9983 18.5487 23.4713 18.5487ZM45.7238 31.199V41.7029H42.6747C42.5721 41.7029 42.4881 41.6192 42.4881 41.5168V39.0186C42.4881 38.9916 42.4853 38.9655 42.4844 38.939H43.5056C44.0004 38.939 44.4009 38.5387 44.4009 38.0454C44.4009 37.5516 44.0004 37.1519 43.5056 37.1519H17.2173C16.7225 37.1519 16.3219 37.5516 16.3219 38.0454C16.3219 38.5387 16.7225 38.939 17.2173 38.939H18.6698C18.6689 38.9655 18.6656 38.9916 18.6656 39.0186V41.5168C18.6656 41.6192 18.5821 41.7029 18.4795 41.7029H15.5059V31.192C15.5059 29.6204 16.7869 28.3415 18.3616 28.3415C18.3905 28.3415 18.4199 28.3401 18.4492 28.3373C22.4049 27.9482 26.4254 27.7477 30.4001 27.7411C34.3908 27.743 38.4252 27.9431 42.3958 28.3373C42.4252 28.3401 42.455 28.3415 42.4844 28.3415C42.5404 28.3415 42.5958 28.3355 42.6499 28.3252C42.6938 28.3294 42.7371 28.3331 42.7805 28.3373C42.8052 28.3396 42.8299 28.341 42.8551 28.3415C43.1433 28.3457 44.1454 28.4234 44.9241 29.2402C45.6268 29.976 45.7182 30.8504 45.7238 31.199Z" fill="#CC0000"/>
<path d="M19.5566 29.3821C18.0999 29.3821 16.9141 30.5656 16.9141 32.02C16.9141 33.4743 18.0999 34.6578 19.5566 34.6578C21.0138 34.6578 22.1996 33.4743 22.1996 32.02C22.1996 30.5656 21.0138 29.3821 19.5566 29.3821ZM19.5566 32.8707C19.087 32.8707 18.7047 32.4891 18.7047 32.02C18.7047 31.5508 19.087 31.1692 19.5566 31.1692C20.0266 31.1692 20.409 31.5508 20.409 32.02C20.409 32.4891 20.0266 32.8707 19.5566 32.8707Z" fill="#CC0000"/>
<path d="M39.1172 32.02C39.1172 33.4743 40.303 34.6578 41.7597 34.6578C43.2169 34.6578 44.4023 33.4743 44.4023 32.02C44.4023 30.5656 43.2169 29.3821 41.7597 29.3821C40.303 29.3821 39.1172 30.5656 39.1172 32.02ZM42.6117 32.02C42.6117 32.4891 42.2298 32.8707 41.7597 32.8707C41.2897 32.8707 40.9078 32.4891 40.9078 32.02C40.9078 31.5508 41.2897 31.1692 41.7597 31.1692C42.2298 31.1692 42.6117 31.5508 42.6117 32.02Z" fill="#CC0000"/>
<path d="M34.5049 31.1264H26.118C25.6232 31.1264 25.2227 31.5267 25.2227 32.02C25.2227 32.5138 25.6232 32.9135 26.118 32.9135H34.5049C34.9992 32.9135 35.4002 32.5138 35.4002 32.02C35.4002 31.5267 34.9992 31.1264 34.5049 31.1264Z" fill="#CC0000"/>
</g>
<defs>
<clipPath id="clip0">
<rect width="61" height="61" fill="white"/>
</clipPath>
</defs>
</svg>
