<?xml version="1.0" encoding="utf-8"?>
<!-- Generator: Adobe Illustrator 15.1.0, SVG Export Plug-In . SVG Version: 6.00 Build 0)  -->
<!DOCTYPE svg PUBLIC "-//W3C//DTD SVG 1.1//EN" "http://www.w3.org/Graphics/SVG/1.1/DTD/svg11.dtd">
<svg version="1.1" id="Layer_1" xmlns="http://www.w3.org/2000/svg" xmlns:xlink="http://www.w3.org/1999/xlink" x="0px" y="0px"
	 width="53px" height="53px" viewBox="0 0 53 53" enable-background="new 0 0 53 53" xml:space="preserve">
<path fill="#821529" d="M26.5,0C11.864,0,0,11.864,0,26.5S11.864,53,26.5,53S53,41.136,53,26.5C52.982,11.872,41.129,0.017,26.5,0z
	 M26.5,51.29c-13.691,0-24.791-11.099-24.791-24.79S12.809,1.709,26.5,1.709S51.291,12.809,51.291,26.5
	C51.275,40.186,40.186,51.275,26.5,51.29z"/>
<path fill="#821529" d="M39.572,16.92L22.226,34.268l-8.799-8.799c-0.34-0.328-0.881-0.319-1.209,0.021
	c-0.32,0.331-0.32,0.856,0,1.188l9.403,9.403c0.334,0.334,0.875,0.334,1.209,0l17.951-17.952c0.328-0.339,0.318-0.88-0.021-1.208
	C40.43,16.6,39.904,16.6,39.572,16.92z"/>
</svg>
